<mxfile host="app.diagrams.net" modified="2023-06-24T05:15:22.770Z" agent="Mozilla/5.0 (Windows NT 10.0; Win64; x64) AppleWebKit/537.36 (KHTML, like Gecko) Chrome/114.0.0.0 Safari/537.36 Edg/114.0.1823.58" version="21.4.0" etag="7pZjMbulvKM0oy_fbM-u" type="github">
  <diagram name="Page-1" id="F3JNva2jFZXfpyNCs83c">
    <mxGraphModel>
      <root>
        <mxCell id="0" />
        <mxCell id="1" parent="0" />
      </root>
    </mxGraphModel>
  </diagram>
</mxfile>
